<svg xmlns="http://www.w3.org/2000/svg" width="40" height="41" viewBox="0 0 40 41">
    <g fill="none" fill-rule="evenodd">
        <g fill="#F8A6A6">
            <g>
                <g>
                    <path d="M19.932 40.01h.023-.023zm.143 0h-.008.023-.015zm-.204 0h.024-.024zm.27 0h-.015.025-.01zm-.328 0h.016-.016zm.393 0h-.013.016-.003zm.062 0h-.006.023-.017zm-.53 0h.022-.023zm.596-.002h-.014.028-.014zm-.66 0h.028-.028zm.725 0h-.018.026-.008zm-.784 0h.026-.026zm-.073-.002h.023-.023zm.919 0h-.004.022-.018zm-.984-.002h.031-.031zm1.05 0h-.013.03-.018zm.065-.001h-.02.032-.012zm-1.174 0h.032-.032zM19.365 40h.023H19.347h.018zm1.29 0h-.02H20.674h-.02zm.063-.002h-.011l.034-.001h-.023zm-1.438-.001l.035.001h-.011l-.024-.001zm-.058-.002h.036H19.222zm1.562 0h-.02.036-.016zm-1.62-.003l.036.002-.028-.001h-.008zm1.686 0l-.028.002.035-.002h-.007zm-1.766-.003l.038.001h-.01l-.028-.001zm1.826.001h-.01l.038-.001-.028.001zm-1.884-.004l.04.002h-.02l-.02-.002zm1.95.001h-.02.04-.02zm-2.007-.004l.04.002-.028-.001h-.012zm2.072 0l-.028.002.04-.002h-.012zm.063-.002l-.037.001.033-.001.037-.002-.033.002zm-2.182 0l.032.001-.036-.001-.033-.002.037.002zm2.244-.004h-.016l.04-.001-.024.001zm-2.335-.001l.04.002-.015-.001-.025-.001zm-.056-.004l.04.003-.025-.002h-.015zm2.457.001l-.025.002.04-.003-.015.001zm-2.507-.004l.036.002-.034-.002-.034-.002.032.002zm2.57 0l-.034.002.036-.002.032-.002-.034.002zm.062-.004l-.013.001.04-.003-.027.002zm-2.718-.002l.038.003h-.012l-.026-.003zm-.057-.003l.038.002-.02-.001-.018-.001zm2.84 0l-.02.002.037-.002h-.017zm-2.895-.004l.035.002-.028-.002h-.007zm2.96 0l-.027.002.035-.002h-.008zm-3.035-.006l.03.002h-.007l-.023-.002zm3.095.002h-.007l.03-.002-.023.002zm.065-.005h-.015l.031-.002-.016.002zm-3.219-.002l.031.003-.014-.001-.017-.002zm-.056-.004l.027.002-.019-.002h-.008zm3.34 0l-.019.002.027-.002h-.008zm.125-.01h-.007l.018-.001h-.011zm-3.593-.001l.018.001h-.007l-.01-.001zm-.058-.006l.014.002-.009-.001h-.005zm3.715 0l-.009.002.014-.002h-.005zm-4.991-.168C7.319 38.255 0 29.975 0 20 0 8.962 8.962 0 20 0s20 8.962 20 20c0 9.975-7.319 18.255-16.875 19.757V25.78h4.66L28.672 20h-5.547v-3.752c0-1.581.775-3.123 3.26-3.123h2.521V8.203s-2.288-.39-4.477-.39c-4.568 0-7.554 2.768-7.554 7.78V20h-5.078v5.781h5.078v13.976z" transform="translate(-336 -6135) translate(156 5532) translate(180 603)"/>
                </g>
            </g>
        </g>
    </g>
</svg>
