<svg xmlns="http://www.w3.org/2000/svg" width="40" height="40" viewBox="0 0 40 40">
    <g fill="none" fill-rule="evenodd">
        <g fill="#F8A6A6">
            <g>
                <g>
                    <g>
                        <path d="M20 0c11.038 0 20 8.962 20 20s-8.962 20-20 20S0 31.038 0 20 8.962 0 20 0zm-3.523 30.637c8.85 0 13.69-7.333 13.69-13.689 0-.21 0-.419-.01-.619.938-.678 1.756-1.526 2.404-2.494-.858.38-1.786.639-2.764.758.998-.598 1.757-1.536 2.116-2.664-.928.549-1.956.948-3.053 1.168-.879-.938-2.126-1.517-3.513-1.517-2.654 0-4.809 2.155-4.809 4.81 0 .378.04.748.13 1.097-4.001-.2-7.543-2.115-9.918-5.029-.409.708-.648 1.537-.648 2.415 0 1.666.848 3.143 2.145 4-.788-.02-1.527-.239-2.175-.598v.06c0 2.335 1.656 4.27 3.861 4.72-.4.11-.828.169-1.267.169-.31 0-.609-.03-.908-.09.608 1.916 2.385 3.303 4.49 3.343-1.647 1.287-3.722 2.055-5.977 2.055-.389 0-.768-.02-1.147-.07 2.105 1.377 4.64 2.175 7.353 2.175z" transform="translate(-458 -6135) translate(156 5532) translate(180 603) translate(122)"/>
                    </g>
                </g>
            </g>
        </g>
    </g>
</svg>
