<svg xmlns="http://www.w3.org/2000/svg" width="40" height="40" viewBox="0 0 40 40">
    <g fill="none" fill-rule="evenodd">
        <g fill="#F8A6A6">
            <g>
                <g>
                    <g>
                        <path d="M20 0c11.038 0 20 8.962 20 20s-8.962 20-20 20S0 31.038 0 20 8.962 0 20 0zm0 7.5c-3.395 0-3.82.014-5.154.075-1.33.06-2.239.272-3.034.581-.822.32-1.52.747-2.214 1.442-.695.695-1.122 1.392-1.442 2.214-.309.795-.52 1.704-.58 3.034C7.513 16.18 7.5 16.606 7.5 20c0 3.395.014 3.82.075 5.154.06 1.33.272 2.239.581 3.034.32.822.747 1.519 1.442 2.214.695.695 1.392 1.122 2.214 1.442.795.309 1.704.52 3.034.58 1.334.062 1.76.076 5.154.076 3.395 0 3.82-.014 5.154-.075 1.33-.06 2.239-.272 3.034-.581.822-.32 1.519-.747 2.214-1.442.695-.695 1.122-1.392 1.442-2.214.309-.795.52-1.704.58-3.034.062-1.334.076-1.76.076-5.154 0-3.395-.014-3.82-.075-5.154-.06-1.33-.272-2.239-.581-3.034-.32-.822-.747-1.519-1.442-2.214-.695-.695-1.392-1.122-2.214-1.442-.795-.309-1.704-.52-3.034-.58C23.82 7.513 23.394 7.5 20 7.5zm0 2.252c3.338 0 3.733.013 5.051.073 1.219.056 1.88.26 2.321.43.584.227 1 .498 1.437.936.438.437.709.853.935 1.437.172.44.375 1.102.43 2.32.061 1.319.074 1.714.074 5.052 0 3.338-.013 3.733-.073 5.051-.056 1.219-.26 1.88-.43 2.321-.227.584-.498 1-.936 1.437-.437.438-.853.709-1.437.935-.44.172-1.102.375-2.32.43-1.319.061-1.714.074-5.052.074-3.338 0-3.733-.013-5.051-.073-1.219-.056-1.88-.26-2.321-.43-.584-.227-1-.498-1.437-.936-.438-.437-.709-.853-.935-1.437-.172-.44-.375-1.102-.43-2.32-.061-1.319-.074-1.714-.074-5.052 0-3.338.013-3.733.073-5.051.056-1.219.26-1.88.43-2.321.227-.584.498-1 .936-1.437.437-.438.853-.709 1.437-.935.44-.172 1.102-.375 2.32-.43 1.319-.061 1.714-.074 5.052-.074zm0 3.83c-3.545 0-6.419 2.873-6.419 6.418s2.874 6.419 6.419 6.419c3.545 0 6.419-2.874 6.419-6.419 0-3.545-2.874-6.419-6.419-6.419zm0 10.585c-2.301 0-4.167-1.866-4.167-4.167 0-2.301 1.866-4.167 4.167-4.167 2.301 0 4.167 1.866 4.167 4.167 0 2.301-1.866 4.167-4.167 4.167zm8.173-10.84c0 .829-.672 1.5-1.5 1.5-.829 0-1.5-.671-1.5-1.5 0-.828.671-1.5 1.5-1.5.828 0 1.5.672 1.5 1.5z" transform="translate(-397 -6135) translate(156 5532) translate(180 603) translate(61)"/>
                    </g>
                </g>
            </g>
        </g>
    </g>
</svg>
