<svg xmlns="http://www.w3.org/2000/svg" width="22" height="21" viewBox="0 0 22 21">
    <g fill="none" fill-rule="evenodd">
        <g fill="#444" fill-rule="nonzero">
            <g>
                <path d="M15.054 4.747c0-1.384.06-2.463-1.049-3.608C12.796-.104 11.575.056 10.03.056c-1.99 0-3.583 1.678-3.583 3.672 0 .673-.153 1.51.491 1.51s.492-.837.492-1.51c0-1.458 1.149-2.694 2.6-2.694 1.309 0 2.344-.174 3.274.79.874.895.77 1.796.77 2.923 0 .644.981.644.981 0zM14.366 7.158c-1.633 0-1.633 2.486 0 2.486 1.633-.001 1.633-2.486 0-2.486zM7.134 7.144c-1.648 0-1.648 2.51 0 2.51s1.648-2.51 0-2.51z" transform="translate(-1346 -54) translate(1346 54)"/>
                <path d="M21.278 19.863L18.481 6.12c-.026-.242-.234-.432-.488-.432H3.503c-.227 0-.431.16-.476.39L.23 19.823c-.085.35.164.629.472.629H20.8c.309 0 .54-.283.48-.588zm-19.98-.39L3.904 6.667h13.69L20.2 19.473H1.297z" transform="translate(-1346 -54) translate(1346 54)"/>
            </g>
        </g>
    </g>
</svg>
